<svg xmlns="http://www.w3.org/2000/svg" width="37.747" height="35.002" viewBox="0 0 37.747 35.002">
  <path id="Icon_awesome-github" data-name="Icon awesome-github" d="M12.625,28.746c0,.145-.175.261-.4.261-.251.022-.426-.094-.426-.261,0-.145.175-.261.4-.261C12.428,28.464,12.625,28.579,12.625,28.746Zm-2.367-.326c-.053.145.1.311.327.355.2.072.426,0,.472-.145s-.1-.311-.327-.376A.4.4,0,0,0,10.259,28.42Zm3.364-.123c-.221.051-.373.188-.35.355.023.145.221.239.449.188s.373-.188.35-.333S13.843,28.275,13.622,28.3ZM18.63.563C8.074.563,0,8.184,0,18.222A18.236,18.236,0,0,0,12.9,35.535c.974.166,1.317-.405,1.317-.876,0-.449-.023-2.924-.023-4.444,0,0-5.327,1.086-6.446-2.157,0,0-.868-2.106-2.116-2.649,0,0-1.743-1.136.122-1.115a4.058,4.058,0,0,1,2.938,1.867,4.141,4.141,0,0,0,5.548,1.513,3.951,3.951,0,0,1,1.218-2.439c-4.254-.449-8.546-1.035-8.546-8a5.352,5.352,0,0,1,1.8-4.263,6.527,6.527,0,0,1,.2-4.914c1.591-.47,5.251,1.954,5.251,1.954a18.872,18.872,0,0,1,9.558,0s3.661-2.432,5.251-1.954a6.524,6.524,0,0,1,.2,4.914,5.506,5.506,0,0,1,1.963,4.263c0,6.984-4.482,7.542-8.737,8a4.171,4.171,0,0,1,1.294,3.358c0,2.439-.023,5.457-.023,6.051,0,.47.35,1.042,1.317.876a18.059,18.059,0,0,0,12.77-17.3C37.747,8.184,29.185.563,18.63.563ZM7.4,25.525c-.1.072-.076.239.053.376.122.116.3.166.4.072.1-.072.076-.239-.053-.376C7.671,25.482,7.5,25.431,7.4,25.525Zm-.822-.586c-.053.094.023.21.175.282a.234.234,0,0,0,.327-.051c.053-.094-.023-.21-.175-.282C6.75,24.845,6.629,24.867,6.575,24.939Zm2.466,2.577c-.122.094-.076.311.1.449.175.166.4.188.495.072.1-.094.053-.311-.1-.449C9.368,27.421,9.14,27.4,9.041,27.516Zm-.868-1.064c-.122.072-.122.261,0,.427s.327.239.426.166a.318.318,0,0,0,0-.449A.313.313,0,0,0,8.173,26.452Z" transform="translate(0 -0.563)" fill="#fff"/>
</svg>
