<svg xmlns="http://www.w3.org/2000/svg" width="34.68" height="35.237" viewBox="0 0 34.68 35.237">
  <path id="Icon_simple-linkedin" data-name="Icon simple-linkedin" d="M29.546,30.028H24.411V21.852c0-1.95-.039-4.459-2.676-4.459-2.678,0-3.087,2.122-3.087,4.315v8.32H13.512V13.214h4.933v2.292h.066a5.4,5.4,0,0,1,4.87-2.716c5.2,0,6.166,3.48,6.166,8.009v9.229ZM7.712,10.913a3.031,3.031,0,1,1,2.983-3.032A3,3,0,0,1,7.712,10.913Zm2.575,19.115H5.137V13.214h5.15ZM32.115,0H2.559A2.548,2.548,0,0,0,0,2.539V32.7a2.547,2.547,0,0,0,2.559,2.539H32.111A2.557,2.557,0,0,0,34.68,32.7V2.539A2.558,2.558,0,0,0,32.111,0Z" fill="#fff"/>
</svg>
