<svg xmlns="http://www.w3.org/2000/svg" width="65.074" height="57.332" viewBox="0 0 65.074 57.332">
  <path id="Icon_awesome-react" data-name="Icon awesome-react" d="M52.335,20.43q-1.014-.338-2.027-.639c.113-.463.213-.927.313-1.39,1.539-7.463.526-13.46-2.891-15.439-3.291-1.891-8.66.075-14.091,4.808-.538.463-1.064.952-1.564,1.44-.338-.326-.688-.651-1.039-.964-5.694-5.059-11.4-7.187-14.817-5.2-3.279,1.9-4.255,7.55-2.878,14.612.138.7.288,1.39.463,2.091-.8.225-1.589.476-2.328.739C4.793,22.809,0,26.465,0,30.247c0,3.907,5.106,7.826,12.051,10.2.563.188,1.126.376,1.7.538-.188.751-.35,1.49-.5,2.254-1.314,6.949-.288,12.459,2.991,14.349,3.379,1.953,9.06-.05,14.592-4.9.438-.388.876-.789,1.314-1.215.551.538,1.126,1.052,1.7,1.553,5.356,4.608,10.65,6.473,13.916,4.583,3.379-1.953,4.48-7.876,3.054-15.088q-.169-.826-.375-1.69c.4-.113.788-.238,1.176-.363,7.221-2.392,12.452-6.261,12.452-10.23,0-3.794-4.931-7.475-11.738-9.817ZM35.4,9.8c4.655-4.057,9-5.647,10.975-4.508,2.115,1.215,2.928,6.123,1.6,12.571-.088.426-.175.839-.288,1.252a64.032,64.032,0,0,0-8.422-1.327,63.258,63.258,0,0,0-5.331-6.649c.488-.463.964-.9,1.464-1.34ZM20.924,36.745c.638,1.089,1.289,2.179,1.977,3.243a56.637,56.637,0,0,1-5.807-.939,58.513,58.513,0,0,1,2.04-5.572C19.71,34.579,20.3,35.669,20.924,36.745ZM17.132,21.682c1.8-.4,3.717-.726,5.707-.977-.663,1.039-1.314,2.1-1.927,3.18S19.7,26.04,19.134,27.142c-.788-1.866-1.452-3.694-2-5.459Zm3.429,8.627c.826-1.728,1.727-3.418,2.678-5.084s1.977-3.281,3.054-4.871c1.877-.138,3.792-.213,5.744-.213s3.879.075,5.744.213q1.6,2.367,3.041,4.846t2.716,5.059q-1.258,2.592-2.7,5.109c-.951,1.665-1.965,3.281-3.028,4.883-1.865.138-3.8.2-5.769.2s-3.867-.063-5.707-.175q-1.633-2.385-3.079-4.883c-.964-1.665-1.852-3.356-2.691-5.084Zm22.6,6.411c.638-1.1,1.239-2.216,1.827-3.343A58.144,58.144,0,0,1,47.1,38.924a54.94,54.94,0,0,1-5.882,1C41.9,38.874,42.536,37.8,43.162,36.72Zm1.8-9.579c-.588-1.1-1.189-2.2-1.815-3.281s-1.251-2.116-1.915-3.155a57.561,57.561,0,0,1,5.744,1,55.434,55.434,0,0,1-2.015,5.434Zm-12.9-14.086a54.976,54.976,0,0,1,3.7,4.483c-2.478-.113-4.968-.113-7.446,0C29.546,15.923,30.81,14.42,32.062,13.055ZM17.545,5.38c2.1-1.227,6.77.526,11.688,4.883.313.275.626.576.951.876a63.608,63.608,0,0,0-5.369,6.649,65.933,65.933,0,0,0-8.41,1.3c-.163-.639-.3-1.29-.438-1.941-1.176-6.06-.4-10.631,1.577-11.77ZM14.479,38.386c-.526-.15-1.039-.313-1.552-.488a25.518,25.518,0,0,1-7.884-3.907,5.619,5.619,0,0,1-2.353-3.744c0-2.291,3.955-5.221,9.661-7.212.713-.25,1.439-.476,2.165-.689a66.6,66.6,0,0,0,3.066,7.964,68.468,68.468,0,0,0-3.1,8.076ZM29.071,50.657a22.9,22.9,0,0,1-7.058,4.42,5.536,5.536,0,0,1-4.418.163c-1.99-1.152-2.816-5.572-1.689-11.52.138-.7.288-1.4.463-2.091a62.574,62.574,0,0,0,8.5,1.227,66.071,66.071,0,0,0,5.406,6.686C29.872,49.93,29.471,50.306,29.071,50.657Zm3.066-3.043c-1.276-1.377-2.553-2.9-3.792-4.545,1.2.05,2.44.075,3.692.075,1.289,0,2.553-.025,3.8-.088a53.994,53.994,0,0,1-3.7,4.558ZM48.493,51.37a5.566,5.566,0,0,1-2.065,3.919c-1.99,1.152-6.232-.351-10.812-4.282-.526-.451-1.051-.939-1.589-1.44a61.936,61.936,0,0,0,5.281-6.711,61.66,61.66,0,0,0,8.535-1.315c.125.513.238,1.027.338,1.528A22.838,22.838,0,0,1,48.493,51.37Zm2.278-13.46c-.35.113-.7.225-1.064.326a63.628,63.628,0,0,0-3.191-7.989,63.311,63.311,0,0,0,3.066-7.876c.651.188,1.276.388,1.877.588,5.832,2,9.924,4.983,9.924,7.262,0,2.454-4.368,5.622-10.612,7.688ZM32.037,36.032A5.735,5.735,0,1,0,26.305,30.3,5.732,5.732,0,0,0,32.037,36.032Z" transform="translate(0.5 -1.643)" fill="#5ed3f3" stroke="#5ed3f3" stroke-width="1"/>
</svg>
