<svg xmlns="http://www.w3.org/2000/svg" width="110.81" height="44.544" viewBox="0 0 110.81 44.544">
  <path id="Icon_awesome-sass" data-name="Icon awesome-sass" d="M51.622,31.932C51.571,31.983,51.519,32.024,51.622,31.932Zm42.608-7.385a42.169,42.169,0,0,0-9.919,1.146c-1.009-1.01-2.052-1.893-2.223-2.555A3.482,3.482,0,0,1,81.9,20.99a12.273,12.273,0,0,1,1.3-2.309c-.017-.093-.239-.56-2.446-.569s-4.1.212-4.325.5a6.978,6.978,0,0,0-.906,1.621c-.393.993-4.411,4.541-6.685,6.392a5.539,5.539,0,0,1-1.522-1.868,3.482,3.482,0,0,1-.188-2.148,12.272,12.272,0,0,1,1.3-2.309c-.017-.093-.239-.56-2.444-.569s-4.1.212-4.327.5-.462.968-.906,1.621-5.8,6.562-7.2,8.1c-.718.781-1.334,1.409-1.779,1.834-.068.068-.12.11-.154.144.051-.042.086-.085.086-.068-.376.365-.6.569-.6.569v.008a1.867,1.867,0,0,1-.77.518c-.1,0-.325-.713.051-1.689.8-2.054,2.7-5.246,2.685-5.356-.017-.059.359-.611-1.248-.908a3.514,3.514,0,0,0-2.258.187c-.137,0-.239.17-.239.17s1.727-3.6-3.316-3.6a19.739,19.739,0,0,0-9.677,3.268c-1.351.365-4.276,1.154-7.354,1.995l-3.54.968c-.086-.042-.154-.085-.239-.127-6.121-3.243-17.422-5.535-16.943-9.889.171-1.587,1.283-5.755,21.732-10.815,16.76-4.143,30.16-3.005,32.467-.475,3.318,3.608-7.164,10.322-24.569,11.29-6.634.365-10.121-.908-10.993-1.384-.906-.5-1.043-.526-1.385-.433-.564.153-.205.594,0,.857.513.671,2.651,1.859,6.292,2.453,3.2.518,10.976.806,20.381-1,10.566-2.02,18.791-7.648,16.379-12.36C66.1,1.322,50.11-.249,34.986,2.417,25.975,4,16.23,6.5,9.22,9.751.892,13.622-.44,16.992.107,18.4c1.948,5,15.832,8.26,21.388,10.67-.274.076-.53.144-.77.212-2.786.688-13.371,3.438-16.02,6.341-2.993,3.294.5,5.653,2.786,5.976,7.147.985,14.465-.789,18.4-3.7s3.455-6.715,1.642-8.446c-.017-.025-.051-.042-.068-.068.718-.212,1.454-.424,2.189-.637,1.418-.416,2.8-.8,4.017-1.129a7.846,7.846,0,0,0-1.437,3.616c-.308,1.868,1.248,4.287,3.267,5.238a6.345,6.345,0,0,0,2.632.424,5.792,5.792,0,0,0,4.6-2.122,34.464,34.464,0,0,0,2.736-3.047s-1.608,4.431,2.788,4.431a7.381,7.381,0,0,0,3.934-1.553v.008s.034-.034.12-.1c.171-.127.257-.2.257-.2v-.025c.65-.552,2.069-1.817,4.206-3.9a71.834,71.834,0,0,0,5.42-6.069,10.708,10.708,0,0,0,1.06,2.19,18.838,18.838,0,0,0,2.292,2.547c-.65.441-1.043.7-1.043.7a.027.027,0,0,0,.017.017c-.513.34-1.095.7-1.693,1.061a47.65,47.65,0,0,0-5.131,3.192c-.41.5-.308.874.479,1.163a7.936,7.936,0,0,0,2.683.212,22.266,22.266,0,0,0,4.019-.458,21.612,21.612,0,0,0,3.453-.9c2.138-.781,3.438-1.9,3.318-3.379A4.591,4.591,0,0,0,70.4,28.257c.188-.136.393-.28.581-.424a51.666,51.666,0,0,0,6-5.146,10.708,10.708,0,0,0,1.06,2.19,13.66,13.66,0,0,0,1.948,2.182c-3.179,1.282-5.146,2.767-5.83,3.744-1.266,1.808-.274,2.623,1.591,2.81a10.912,10.912,0,0,0,2.925-.3,21.074,21.074,0,0,0,3.692-.942c2.138-.781,4.206-1.876,4.069-3.362a3.93,3.93,0,0,0-.924-1.986,40.8,40.8,0,0,1,10.619-.611c9.523.552,11.387,3.506,11.028,4.737s-2.36,1.918-3.027,2.122-.872.28-.821.433c.086.221.393.212.958.161.787-.068,4.992-1,5.18-3.285.274-2.886-5.317-6.061-15.221-6.035ZM20.829,36.83c-3.145,1.706-7.558,2.351-9.454,1.808-2.035-.587-1.231-3.1,2.649-4.917a63.8,63.8,0,0,1,7.421-2.75c.462-.136,1.129-.34,1.95-.586.137-.042.205-.059.205-.059.154-.051.325-.093.5-.144,1.418,2.581.051,4.856-3.267,6.647Zm22.979-7.759c-1.095,1.333-3.4,4.728-4.8,4.55-1.2-.153-1.933-2.742-.239-5.288a13.068,13.068,0,0,1,3.745-3.4c1.726-.959,3.624-1.265,4.069-.883C47.177,24.547,44.492,28.24,43.808,29.072Zm18.984,4.5a2.721,2.721,0,0,1-1.095.136c-.154-.042.188-.2.188-.2s2.377-1.265,3.318-1.842c.547-.34,1.18-.739,1.862-1.18,0,.042.017.085.017.136-.022,1.519-2.962,2.547-4.3,2.954Zm14.636-1.655c-.342-.119-.291-.518.855-1.757a10,10,0,0,1,3.249-2.08,1.761,1.761,0,0,1,.325.917c-.017,1.91-2.771,2.623-4.428,2.92Z" transform="matrix(0.999, -0.035, 0.035, 0.999, -0.04, 2.695)" fill="#c76494"/>
</svg>
