<svg xmlns="http://www.w3.org/2000/svg" width="57.755" height="49.026" viewBox="0 0 57.755 49.026">
  <path id="Icon_simple-webpack" data-name="Icon simple-webpack" d="M5.275,13.811,31.237,2.572v8.754l-16.176,6.81L5.276,13.811ZM3.5,15.042V38.548l9.5-4.2V19.243Zm55.979-1.231L33.516,2.572v8.754l16.176,6.81,9.786-4.325Zm1.776,1.231V38.548l-9.5-4.2V19.243ZM60.142,40.069,33.516,51.6V43.134l17.058-7.181.13-.057Zm-55.532,0L31.237,51.6V43.134L14.179,35.953l-.13-.057L4.611,40.068ZM33.516,13.317l15.959,6.715V33.339L33.517,26.286V13.317Zm-2.279,0L15.279,20.032V33.339l15.958-7.053V13.317ZM48.394,34.879l-16.02,6.744L16.353,34.879,32.374,27.8Z" transform="translate(-3.5 -2.572)" fill="#6a8fd0"/>
</svg>
