<svg xmlns="http://www.w3.org/2000/svg" width="59.325" height="51.504" viewBox="0 0 59.325 51.504">
  <path id="Icon_awesome-instagram" data-name="Icon awesome-instagram" d="M29.664,14.785c-8.417,0-15.207,5.9-15.207,13.205s6.789,13.205,15.207,13.205S44.87,35.3,44.87,27.99,38.081,14.785,29.664,14.785Zm0,21.79c-5.439,0-9.886-3.85-9.886-8.585S24.211,19.4,29.664,19.4s9.886,3.85,9.886,8.585-4.447,8.585-9.886,8.585Zm19.376-22.33a3.582,3.582,0,0,1-7.094,0,3.582,3.582,0,0,1,7.094,0Zm10.072,3.126C58.886,13.245,57.8,9.59,54.32,6.579s-7.676-3.953-12.427-4.16c-4.9-.241-19.574-.241-24.471,0-4.738.2-8.947,1.138-12.427,4.149S.441,13.233.2,17.359c-.278,4.252-.278,17,0,21.25C.428,42.735,1.513,46.39,4.994,49.4s7.676,3.953,12.427,4.16c4.9.241,19.574.241,24.471,0,4.751-.2,8.96-1.138,12.427-4.16s4.553-6.666,4.791-10.792c.278-4.252.278-16.986,0-21.238Zm-6.326,25.8a9.451,9.451,0,0,1-5.638,4.9c-3.9,1.345-13.169,1.034-17.483,1.034s-13.592.3-17.483-1.034a9.453,9.453,0,0,1-5.638-4.9C4.994,39.781,5.351,31.736,5.351,27.99s-.344-11.8,1.191-15.182a9.451,9.451,0,0,1,5.638-4.9c3.9-1.345,13.169-1.034,17.483-1.034s13.592-.3,17.483,1.034a9.453,9.453,0,0,1,5.638,4.9c1.548,3.39,1.191,11.435,1.191,15.182S54.333,39.793,52.785,43.172Z" transform="translate(0.005 -2.238)" fill="#fff"/>
</svg>
