<svg xmlns="http://www.w3.org/2000/svg" width="51.59" height="48.608" viewBox="0 0 51.59 48.608">
  <path id="Icon_awesome-phone-square-alt" data-name="Icon awesome-phone-square-alt" d="M46.062,2.25H5.527A5.375,5.375,0,0,0,0,7.458V45.65a5.375,5.375,0,0,0,5.527,5.208H46.062A5.375,5.375,0,0,0,51.59,45.65V7.458A5.375,5.375,0,0,0,46.062,2.25ZM44.175,35.6l-1.727,7.052a1.709,1.709,0,0,1-1.682,1.262c-18.425,0-33.4-14.073-33.4-31.465a1.728,1.728,0,0,1,1.339-1.585l7.485-1.627a2.222,2.222,0,0,1,.388-.042,1.881,1.881,0,0,1,1.588.986l3.455,7.595a1.845,1.845,0,0,1,.139.641,1.8,1.8,0,0,1-.633,1.26l-4.363,3.363a25.986,25.986,0,0,0,12.757,12.02l3.57-4.111a2.008,2.008,0,0,1,1.337-.6,2.165,2.165,0,0,1,.681.131l8.061,3.255a1.763,1.763,0,0,1,1.047,1.5,1.785,1.785,0,0,1-.045.366Z" transform="translate(0 -2.25)" fill="#fff"/>
</svg>
