<svg xmlns="http://www.w3.org/2000/svg" width="53.3" height="48" viewBox="0 0 53.3 48">
  <path id="Icon_awesome-facebook-square" data-name="Icon awesome-facebook-square" d="M47.589,2.25H5.711A5.449,5.449,0,0,0,0,7.393V45.107A5.449,5.449,0,0,0,5.711,50.25H22.04V33.931h-7.5V26.25h7.5V20.4c0-6.659,4.4-10.337,11.144-10.337a50.278,50.278,0,0,1,6.605.519v6.536h-3.72c-3.666,0-4.809,2.049-4.809,4.15V26.25h8.183l-1.309,7.681H31.26V50.25H47.589A5.449,5.449,0,0,0,53.3,45.107V7.393A5.449,5.449,0,0,0,47.589,2.25Z" transform="translate(0 -2.25)" fill="#fff"/>
</svg>
