<svg xmlns="http://www.w3.org/2000/svg" width="458.236" height="298.615" viewBox="0 0 458.236 298.615">
  <g id="logo" transform="translate(0 -79.81)">
    <g id="Group_1" data-name="Group 1">
      <path id="Path_1" data-name="Path 1" d="M442.467,79.81H387.488s-19.98,0-24.914,18.3l-23.631,120.9s46.559,117.178,52.646,124.08c4.531,6.863,20.342,15.754,25.418-2.041L458.236,97.606V95.583S457.551,79.81,442.467,79.81Z" fill="#702a9f"/>
      <path id="Path_2" data-name="Path 2" d="M66.665,346.742c6.034-6.865,52.609-121.009,52.609-121.009L95.661,101.8C90.747,83.477,70.712,83.477,70.712,83.477H15.754C.688,83.477,0,99.231,0,99.231v2.06L41.209,344.719C46.305,362.531,62.13,353.625,66.665,346.742Z" fill="#702a9f"/>
      <path id="Path_3" data-name="Path 3" d="M384.889,346.849c-3.957-8.383-104.117-239.344-104.117-239.344S271.3,89.4,242.127,89.4H219.221c-32.593,0-39.873,17.705-39.873,17.705s-81.427,197.5-97.217,228.035c-11.545,36.148-30.515,33.98-30.515,33.98-2.4,11.526,11.311,9.088,11.311,9.088h78.625c19.854,0,28.616-19.021,28.616-19.021L227.8,218.144l61.425,141.045c8.42,16.676,21.57,19.021,21.57,19.021h74.416c21.752,0,22.729-14.887,22.729-14.887C392.654,362.568,388.824,355.251,384.889,346.849Z" fill="#702a9f"/>
      <path id="Path_4" data-name="Path 4" d="M228.4,302.3a29.006,29.006,0,1,0,29.015,29.016A29,29,0,0,0,228.4,302.3Z" fill="#702a9f"/>
    </g>
  </g>
</svg>
